<?xml version="1.0" standalone="no"?>
<!DOCTYPE svg PUBLIC "-//W3C//DTD SVG 20010904//EN"
 "http://www.w3.org/TR/2001/REC-SVG-20010904/DTD/svg10.dtd">
<svg version="1.0" xmlns="http://www.w3.org/2000/svg"
 width="64.000000pt" height="64.000000pt" viewBox="0 0 64.000000 64.000000"
 preserveAspectRatio="xMidYMid meet">

<g transform="translate(0.000000,64.000000) scale(0.100000,-0.100000)"
fill="#000000" stroke="none">
<path d="M203 579 c-12 -4 -24 -17 -27 -27 -4 -11 -20 -25 -36 -32 -16 -7 -46
-30 -65 -51 l-35 -39 0 -121 c0 -85 4 -128 15 -148 30 -60 207 -147 280 -138
48 5 141 45 198 84 59 41 67 65 67 202 l0 121 -35 39 c-19 21 -49 44 -65 51
-16 7 -32 20 -35 30 -9 27 -31 32 -31 6 1 -15 -5 -21 -19 -21 -14 0 -20 6 -19
21 1 29 -24 20 -32 -12 -8 -30 -50 -59 -61 -41 -5 8 -9 4 -13 -13 -7 -31 -34
-33 -38 -2 -2 15 2 22 12 22 10 0 16 9 16 24 0 37 -39 59 -77 45z m37 -24 c0
-8 -7 -15 -15 -15 -8 0 -15 7 -15 15 0 8 7 15 15 15 8 0 15 -7 15 -15z m-34
-66 c16 -17 16 -22 4 -29 -8 -6 -18 -10 -22 -10 -14 0 -29 -41 -23 -61 4 -11
17 -26 30 -35 31 -20 60 -5 68 36 9 42 44 57 85 36 21 -11 32 -24 34 -43 2
-22 9 -29 31 -31 59 -7 81 47 36 89 -44 41 -16 80 47 65 22 -6 64 -72 64 -102
0 -39 -165 -124 -240 -124 -75 0 -240 85 -240 124 0 20 39 94 52 99 28 11 56
6 74 -14z m180 10 c10 -17 -13 -36 -27 -22 -12 12 -4 33 11 33 5 0 12 -5 16
-11z m51 -65 c8 -21 -13 -42 -28 -27 -13 13 -5 43 11 43 6 0 13 -7 17 -16z
m-197 -9 c0 -8 -9 -15 -20 -15 -11 0 -20 7 -20 15 0 8 9 15 20 15 11 0 20 -7
20 -15z"/>
</g>
</svg>
